<mxfile host="app.diagrams.net" modified="2024-03-30T11:10:08.089Z" agent="Mozilla/5.0 (Windows NT 10.0; Win64; x64) AppleWebKit/537.36 (KHTML, like Gecko) Chrome/123.0.0.0 Safari/537.36" etag="tSWN5vid01uH3CgwGNCr" version="24.2.1" type="device">
  <diagram name="Page-1" id="9F54tOFaS67IIZXBRnvy">
    <mxGraphModel dx="1381" dy="853" grid="1" gridSize="10" guides="1" tooltips="1" connect="1" arrows="1" fold="1" page="1" pageScale="1" pageWidth="827" pageHeight="1169" math="0" shadow="0">
      <root>
        <mxCell id="0" />
        <mxCell id="1" parent="0" />
        <mxCell id="vfYSgXPciYBH7q_a4fOy-27" value="" style="rounded=0;whiteSpace=wrap;html=1;" vertex="1" parent="1">
          <mxGeometry x="60" y="245" width="190" height="120" as="geometry" />
        </mxCell>
        <mxCell id="vfYSgXPciYBH7q_a4fOy-21" value="" style="rounded=0;whiteSpace=wrap;html=1;" vertex="1" parent="1">
          <mxGeometry x="310" y="380" width="190" height="120" as="geometry" />
        </mxCell>
        <mxCell id="vfYSgXPciYBH7q_a4fOy-22" value="" style="rounded=0;whiteSpace=wrap;html=1;" vertex="1" parent="1">
          <mxGeometry x="310" y="250" width="190" height="120" as="geometry" />
        </mxCell>
        <mxCell id="vfYSgXPciYBH7q_a4fOy-20" value="" style="rounded=0;whiteSpace=wrap;html=1;" vertex="1" parent="1">
          <mxGeometry x="310" y="120" width="190" height="120" as="geometry" />
        </mxCell>
        <mxCell id="vfYSgXPciYBH7q_a4fOy-15" value="" style="rounded=0;whiteSpace=wrap;html=1;" vertex="1" parent="1">
          <mxGeometry x="540" y="120" width="160" height="370" as="geometry" />
        </mxCell>
        <mxCell id="vfYSgXPciYBH7q_a4fOy-1" value="Category-Microservice" style="shape=cube;whiteSpace=wrap;html=1;boundedLbl=1;backgroundOutline=1;darkOpacity=0.05;darkOpacity2=0.1;" vertex="1" parent="1">
          <mxGeometry x="350" y="390" width="120" height="80" as="geometry" />
        </mxCell>
        <mxCell id="vfYSgXPciYBH7q_a4fOy-2" value="Product-Microservice" style="shape=cube;whiteSpace=wrap;html=1;boundedLbl=1;backgroundOutline=1;darkOpacity=0.05;darkOpacity2=0.1;" vertex="1" parent="1">
          <mxGeometry x="350" y="270" width="120" height="80" as="geometry" />
        </mxCell>
        <mxCell id="vfYSgXPciYBH7q_a4fOy-3" value="User-Microservice" style="shape=cube;whiteSpace=wrap;html=1;boundedLbl=1;backgroundOutline=1;darkOpacity=0.05;darkOpacity2=0.1;" vertex="1" parent="1">
          <mxGeometry x="350" y="150" width="120" height="80" as="geometry" />
        </mxCell>
        <mxCell id="vfYSgXPciYBH7q_a4fOy-4" value="Category-DB" style="shape=cylinder3;whiteSpace=wrap;html=1;boundedLbl=1;backgroundOutline=1;size=15;" vertex="1" parent="1">
          <mxGeometry x="590" y="390" width="60" height="80" as="geometry" />
        </mxCell>
        <mxCell id="vfYSgXPciYBH7q_a4fOy-5" value="Product-DB" style="shape=cylinder3;whiteSpace=wrap;html=1;boundedLbl=1;backgroundOutline=1;size=15;" vertex="1" parent="1">
          <mxGeometry x="590" y="280" width="60" height="80" as="geometry" />
        </mxCell>
        <mxCell id="vfYSgXPciYBH7q_a4fOy-6" value="User-DB" style="shape=cylinder3;whiteSpace=wrap;html=1;boundedLbl=1;backgroundOutline=1;size=15;" vertex="1" parent="1">
          <mxGeometry x="590" y="160" width="60" height="80" as="geometry" />
        </mxCell>
        <mxCell id="vfYSgXPciYBH7q_a4fOy-7" value="" style="endArrow=classic;html=1;rounded=0;exitX=0;exitY=0;exitDx=120;exitDy=50;exitPerimeter=0;entryX=0;entryY=0;entryDx=0;entryDy=52.5;entryPerimeter=0;" edge="1" parent="1" source="vfYSgXPciYBH7q_a4fOy-1" target="vfYSgXPciYBH7q_a4fOy-4">
          <mxGeometry width="50" height="50" relative="1" as="geometry">
            <mxPoint x="390" y="460" as="sourcePoint" />
            <mxPoint x="590" y="450" as="targetPoint" />
          </mxGeometry>
        </mxCell>
        <mxCell id="vfYSgXPciYBH7q_a4fOy-8" value="" style="endArrow=classic;html=1;rounded=0;exitX=0;exitY=0;exitDx=120;exitDy=50;exitPerimeter=0;entryX=0;entryY=0.5;entryDx=0;entryDy=0;entryPerimeter=0;" edge="1" parent="1" source="vfYSgXPciYBH7q_a4fOy-2" target="vfYSgXPciYBH7q_a4fOy-5">
          <mxGeometry width="50" height="50" relative="1" as="geometry">
            <mxPoint x="390" y="460" as="sourcePoint" />
            <mxPoint x="440" y="410" as="targetPoint" />
          </mxGeometry>
        </mxCell>
        <mxCell id="vfYSgXPciYBH7q_a4fOy-9" value="" style="endArrow=classic;html=1;rounded=0;exitX=0;exitY=0;exitDx=120;exitDy=50;exitPerimeter=0;" edge="1" parent="1" source="vfYSgXPciYBH7q_a4fOy-3" target="vfYSgXPciYBH7q_a4fOy-6">
          <mxGeometry width="50" height="50" relative="1" as="geometry">
            <mxPoint x="390" y="460" as="sourcePoint" />
            <mxPoint x="440" y="410" as="targetPoint" />
          </mxGeometry>
        </mxCell>
        <mxCell id="vfYSgXPciYBH7q_a4fOy-10" value="Legacy-Frontend" style="shape=cube;whiteSpace=wrap;html=1;boundedLbl=1;backgroundOutline=1;darkOpacity=0.05;darkOpacity2=0.1;" vertex="1" parent="1">
          <mxGeometry x="100" y="280" width="120" height="80" as="geometry" />
        </mxCell>
        <mxCell id="vfYSgXPciYBH7q_a4fOy-11" value="" style="endArrow=classic;html=1;rounded=0;" edge="1" parent="1" source="vfYSgXPciYBH7q_a4fOy-10" target="vfYSgXPciYBH7q_a4fOy-1">
          <mxGeometry width="50" height="50" relative="1" as="geometry">
            <mxPoint x="390" y="460" as="sourcePoint" />
            <mxPoint x="440" y="410" as="targetPoint" />
          </mxGeometry>
        </mxCell>
        <mxCell id="vfYSgXPciYBH7q_a4fOy-12" value="" style="endArrow=classic;html=1;rounded=0;" edge="1" parent="1" source="vfYSgXPciYBH7q_a4fOy-10" target="vfYSgXPciYBH7q_a4fOy-2">
          <mxGeometry width="50" height="50" relative="1" as="geometry">
            <mxPoint x="390" y="460" as="sourcePoint" />
            <mxPoint x="440" y="410" as="targetPoint" />
          </mxGeometry>
        </mxCell>
        <mxCell id="vfYSgXPciYBH7q_a4fOy-13" value="" style="endArrow=classic;html=1;rounded=0;" edge="1" parent="1" source="vfYSgXPciYBH7q_a4fOy-10" target="vfYSgXPciYBH7q_a4fOy-3">
          <mxGeometry width="50" height="50" relative="1" as="geometry">
            <mxPoint x="390" y="460" as="sourcePoint" />
            <mxPoint x="440" y="410" as="targetPoint" />
          </mxGeometry>
        </mxCell>
        <mxCell id="vfYSgXPciYBH7q_a4fOy-16" value="my-sql image" style="text;html=1;align=center;verticalAlign=middle;whiteSpace=wrap;rounded=0;" vertex="1" parent="1">
          <mxGeometry x="540" y="120" width="110" height="30" as="geometry" />
        </mxCell>
        <mxCell id="vfYSgXPciYBH7q_a4fOy-23" value="user-image" style="text;html=1;align=center;verticalAlign=middle;whiteSpace=wrap;rounded=0;" vertex="1" parent="1">
          <mxGeometry x="300" y="120" width="90" height="30" as="geometry" />
        </mxCell>
        <mxCell id="vfYSgXPciYBH7q_a4fOy-24" value="product&lt;span style=&quot;background-color: initial;&quot;&gt;-image&lt;/span&gt;" style="text;html=1;align=center;verticalAlign=middle;whiteSpace=wrap;rounded=0;" vertex="1" parent="1">
          <mxGeometry x="310" y="250" width="90" height="30" as="geometry" />
        </mxCell>
        <mxCell id="vfYSgXPciYBH7q_a4fOy-25" value="category&lt;span style=&quot;background-color: initial;&quot;&gt;-image&lt;/span&gt;" style="text;html=1;align=center;verticalAlign=middle;whiteSpace=wrap;rounded=0;" vertex="1" parent="1">
          <mxGeometry x="319" y="470" width="90" height="30" as="geometry" />
        </mxCell>
        <mxCell id="vfYSgXPciYBH7q_a4fOy-28" value="legacy-image" style="text;html=1;align=center;verticalAlign=middle;whiteSpace=wrap;rounded=0;" vertex="1" parent="1">
          <mxGeometry x="60" y="245" width="90" height="30" as="geometry" />
        </mxCell>
      </root>
    </mxGraphModel>
  </diagram>
</mxfile>
